<svg xmlns="http://www.w3.org/2000/svg" xmlns:xlink="http://www.w3.org/1999/xlink" viewBox="0 0 313.23 223.41"><defs><style>.cls-1,.cls-11,.cls-12,.cls-13,.cls-18,.cls-19,.cls-2,.cls-20,.cls-21,.cls-3{stroke-miterlimit:10;stroke-width:3px;}.cls-1{fill:url(#linear-gradient);stroke:url(#linear-gradient-2);}.cls-2{fill:url(#linear-gradient-3);stroke:url(#linear-gradient-4);}.cls-3{fill:url(#linear-gradient-5);stroke:url(#linear-gradient-6);}.cls-4{fill:url(#linear-gradient-7);}.cls-5{fill:#e6c393;}.cls-6{fill:url(#linear-gradient-8);}.cls-21,.cls-7{fill:#231a17;}.cls-8{fill:#ecdfc7;}.cls-9{fill:#78728b;}.cls-10{fill:#1a1814;}.cls-11{fill:url(#linear-gradient-9);stroke:url(#linear-gradient-10);}.cls-12{fill:url(#linear-gradient-11);stroke:url(#linear-gradient-12);}.cls-13{fill:url(#linear-gradient-13);stroke:url(#linear-gradient-14);}.cls-14{fill:url(#linear-gradient-15);}.cls-15{fill:url(#linear-gradient-16);}.cls-16{fill:url(#linear-gradient-17);}.cls-17{fill:#75522f;}.cls-18{fill:url(#linear-gradient-18);stroke:url(#linear-gradient-19);}.cls-19{fill:url(#linear-gradient-20);stroke:url(#linear-gradient-21);}.cls-20{fill:url(#linear-gradient-22);stroke:url(#linear-gradient-23);}.cls-21{stroke:url(#linear-gradient-24);}.cls-22{fill:url(#linear-gradient-25);}.cls-23{fill:url(#linear-gradient-26);}.cls-24{fill:url(#linear-gradient-27);}.cls-25{fill:url(#linear-gradient-28);}</style><linearGradient id="linear-gradient" x1="81.7" y1="109.99" x2="-42.34" y2="109.99" gradientTransform="matrix(-0.55, 0, 0, 1, 288.48, 2.58)" gradientUnits="userSpaceOnUse"><stop offset="0" stop-color="#221b17"/><stop offset="1" stop-color="#e9e7d5"/></linearGradient><linearGradient id="linear-gradient-2" x1="81.7" y1="109.99" x2="-42.34" y2="109.99" gradientTransform="matrix(-0.55, 0, 0, 1, 288.48, 2.58)" gradientUnits="userSpaceOnUse"><stop offset="0" stop-color="#fff"/><stop offset="1"/></linearGradient><linearGradient id="linear-gradient-3" x1="83.32" y1="79.27" x2="-102.45" y2="80.07" gradientTransform="matrix(-0.4, -0.24, 0.03, 0.96, 270.73, 23.27)" xlink:href="#linear-gradient"/><linearGradient id="linear-gradient-4" x1="83.77" y1="79.27" x2="-102.9" y2="80.07" gradientTransform="matrix(-0.4, -0.24, 0.03, 0.96, 270.73, 23.27)" xlink:href="#linear-gradient-2"/><linearGradient id="linear-gradient-5" x1="82.77" y1="141.67" x2="-104.36" y2="141.33" gradientTransform="matrix(-0.38, 0.26, 0, 0.96, 272.9, -9.86)" xlink:href="#linear-gradient"/><linearGradient id="linear-gradient-6" x1="83.23" y1="141.67" x2="-104.81" y2="141.33" gradientTransform="matrix(-0.38, 0.26, 0, 0.96, 272.9, -9.86)" xlink:href="#linear-gradient-2"/><linearGradient id="linear-gradient-7" x1="80.71" y1="120.85" x2="271" y2="120.85" gradientUnits="userSpaceOnUse"><stop offset="0" stop-color="#ebe5d2"/><stop offset="0.9" stop-color="#d58a46"/></linearGradient><linearGradient id="linear-gradient-8" x1="167.8" y1="94.43" x2="271" y2="94.43" gradientUnits="userSpaceOnUse"><stop offset="0" stop-color="#929292"/><stop offset="1" stop-color="#030303"/></linearGradient><linearGradient id="linear-gradient-9" y1="53.78" x2="187.46" y2="53.78" gradientTransform="matrix(1.01, 0.01, 0.01, 1, 0.72, 1.19)" gradientUnits="userSpaceOnUse"><stop offset="0" stop-color="#e9e7d5"/><stop offset="0.97" stop-color="#221b17"/></linearGradient><linearGradient id="linear-gradient-10" x1="-0.8" y1="53.64" x2="188.26" y2="53.92" gradientTransform="matrix(1.01, 0.01, 0.01, 1, 0.72, 1.19)" gradientUnits="userSpaceOnUse"><stop offset="0" stop-color="#e9e7d5"/><stop offset="0.11" stop-color="#d9d7c6"/><stop offset="0.34" stop-color="#afac9e"/><stop offset="0.65" stop-color="#6c675e"/><stop offset="0.97" stop-color="#221b17"/><stop offset="1" stop-color="#221b17"/></linearGradient><linearGradient id="linear-gradient-11" x1="2.98" y1="111.47" x2="189.73" y2="111.47" gradientTransform="matrix(1, 0, 0, 1, 0, 0)" xlink:href="#linear-gradient-9"/><linearGradient id="linear-gradient-12" x1="2.98" y1="110.85" x2="189.73" y2="112.08" gradientTransform="matrix(1, 0, 0, 1, 0, 0)" xlink:href="#linear-gradient-10"/><linearGradient id="linear-gradient-13" x1="2.98" y1="167.61" x2="191.01" y2="167.61" gradientTransform="matrix(1, 0, 0, 1, 0, 0)" xlink:href="#linear-gradient-9"/><linearGradient id="linear-gradient-14" x1="2.59" y1="166.99" x2="191.4" y2="168.23" gradientTransform="matrix(1, 0, 0, 1, 0, 0)" xlink:href="#linear-gradient-10"/><linearGradient id="linear-gradient-15" x1="68.6" y1="52.05" x2="92.81" y2="52.05" gradientUnits="userSpaceOnUse"><stop offset="0" stop-color="#f0eddb"/><stop offset="1" stop-color="#948f9f"/></linearGradient><linearGradient id="linear-gradient-16" x1="68.6" y1="118.88" x2="92.81" y2="118.88" xlink:href="#linear-gradient-15"/><linearGradient id="linear-gradient-17" x1="68.6" y1="184.21" x2="92.81" y2="184.21" xlink:href="#linear-gradient-15"/><linearGradient id="linear-gradient-18" x1="80.33" y1="52.31" x2="188.63" y2="52.31" gradientTransform="matrix(1.01, 0.01, 0.01, 1.01, 1.03, 0.55)" xlink:href="#linear-gradient-9"/><linearGradient id="linear-gradient-19" x1="79.29" y1="52.31" x2="189.68" y2="52.31" gradientTransform="matrix(1.01, 0.01, 0.01, 1.01, 1.03, 0.55)" xlink:href="#linear-gradient-10"/><linearGradient id="linear-gradient-20" x1="1" y1="78.23" x2="187.02" y2="78.23" gradientTransform="matrix(1.01, 0, 0, 1, -0.02, 1.53)" xlink:href="#linear-gradient-9"/><linearGradient id="linear-gradient-21" x1="0.49" y1="78.01" x2="187.53" y2="78.46" gradientTransform="matrix(1.01, 0, 0, 1, -0.02, 1.53)" xlink:href="#linear-gradient-10"/><linearGradient id="linear-gradient-22" x1="0" y1="140.69" x2="187.23" y2="140.69" gradientTransform="matrix(1.01, 0, 0, 1, 2.16, 2.74)" xlink:href="#linear-gradient-9"/><linearGradient id="linear-gradient-23" x1="-0.21" y1="139.9" x2="187.44" y2="141.48" gradientTransform="matrix(1.01, 0, 0, 1, 2.16, 2.74)" xlink:href="#linear-gradient-10"/><linearGradient id="linear-gradient-24" x1="82.63" y1="165.02" x2="188.73" y2="167.19" gradientTransform="matrix(1.01, -0.01, -0.01, 1.01, 2.98, 2.51)" xlink:href="#linear-gradient-10"/><linearGradient id="linear-gradient-25" x1="107.9" y1="43.46" x2="132.1" y2="43.46" xlink:href="#linear-gradient-15"/><linearGradient id="linear-gradient-26" x1="107.9" y1="93.96" x2="132.1" y2="93.96" xlink:href="#linear-gradient-15"/><linearGradient id="linear-gradient-27" x1="107.9" y1="143.16" x2="132.1" y2="143.16" xlink:href="#linear-gradient-15"/><linearGradient id="linear-gradient-28" x1="107.9" y1="191.66" x2="132.1" y2="191.66" xlink:href="#linear-gradient-15"/></defs><title>Intrans</title><g id="Background"><rect x="3.02" y="2.39" width="307.5" height="218.08"/></g><g id="Mouthbeams"><line class="cls-1" x1="244" y1="112.67" x2="311.92" y2="112.51"/><line class="cls-2" x1="240.69" y1="107.47" x2="313.01" y2="96.86"/><line class="cls-3" x1="240.83" y1="118.8" x2="312.03" y2="127.38"/></g><g id="Head"><path class="cls-4" d="M155.75,218l76-71.75H271v-19.5a19,19,0,0,1-18-12.5c-5.25-13.25,5.25-19,5.25-19l-5.88-5.87,8.13-8.13L222.62,43.38S194.5,13,149,27.75C126.69,35,108.17,62.24,106.33,84.33c-1.9,23,13.34,40.67,13.34,40.67l-39,41.1,15,51.9Z" transform="translate(3.02 2.47)"/><path class="cls-5" d="M92.81,252.67" transform="translate(3.02 2.47)"/></g><g id="Face"><path class="cls-6" d="M221.73,42.48l-47,46s-18,16.25,4,32.5a17.41,17.41,0,0,0,8.25,1.75c4.5-.25,6-1,9.25,0s1.75,2,7.75,7,9.25-3,9.25-3,16.58,19.4,18.52,19.5c6,.3,39.25,0,39.25,0v-19.5s-28.75-3-12.75-31.5l-5.88-5.87,8.13-8.13Z" transform="translate(3.02 2.47)"/></g><g id="Ear"><circle class="cls-7" cx="196.69" cy="111.63" r="7.17"/></g><g id="Eye"><circle class="cls-8" cx="226.45" cy="64.26" r="6.43"/><circle class="cls-9" cx="226.45" cy="64.26" r="4.42"/><circle class="cls-10" cx="226.45" cy="64.26" r="2.58"/></g><g id="Lines_Under" data-name="Lines Under"><line class="cls-11" x1="190.48" y1="108.15" x2="0.73" y2="3.07"/><line class="cls-12" x1="189.73" y1="111.47" x2="2.98" y2="111.47"/><line class="cls-13" x1="191.01" y1="114.75" x2="2.98" y2="220.47"/></g><g id="Peeps_L" data-name="Peeps L"><path class="cls-14" d="M92.81,55.05c0-.07,0-.12,0-.19v-.31h0A12.09,12.09,0,0,0,87.6,45.1a7,7,0,0,0,.28-2,7.34,7.34,0,1,0-14.35,2.16,12.06,12.06,0,0,0-4.9,9.24h0v.31c0,.07,0,.12,0,.19s0,.12,0,.18V68.28H92.8V55.23C92.8,55.17,92.81,55.11,92.81,55.05Z" transform="translate(3.02 2.47)"/><path class="cls-15" d="M92.81,121.88c0-.06,0-.12,0-.18v-.32h0a12.07,12.07,0,0,0-5.19-9.44,7.09,7.09,0,0,0,.28-2,7.34,7.34,0,0,0-14.67,0,7.45,7.45,0,0,0,.32,2.17,12,12,0,0,0-4.9,9.23h0v.32c0,.06,0,.12,0,.18s0,.12,0,.18v13.06H92.8V122.06C92.8,122,92.81,121.94,92.81,121.88Z" transform="translate(3.02 2.47)"/><path class="cls-16" d="M92.81,187.21c0-.06,0-.12,0-.18v-.32h0a12.08,12.08,0,0,0-5.19-9.44,7,7,0,0,0,.28-2,7.34,7.34,0,1,0-14.35,2.17,12,12,0,0,0-4.9,9.23h0V187c0,.06,0,.12,0,.18s0,.12,0,.18v13.06H92.8V187.39C92.8,187.33,92.81,187.27,92.81,187.21Z" transform="translate(3.02 2.47)"/></g><g id="Bar"><rect class="cls-17" x="83.36" y="2.39" width="39.67" height="218.08"/></g><g id="Lines_Over" data-name="Lines Over"><line class="cls-18" x1="191.66" y1="107.09" x2="81.92" y2="1.08"/><line class="cls-19" x1="190.04" y1="109.45" x2="1.21" y2="51.08"/><line class="cls-20" x1="190.26" y1="113.39" x2="1.86" y2="173.28"/><line class="cls-21" x1="192.82" y1="115.64" x2="83.73" y2="222.34"/></g><g id="Peeps_R" data-name="Peeps R"><path class="cls-22" d="M132.1,46.46V46h0a12.08,12.08,0,0,0-5.19-9.44,7,7,0,0,0,.28-2,7.34,7.34,0,0,0-14.67,0,7.08,7.08,0,0,0,.33,2.17A12.08,12.08,0,0,0,107.92,46h0V59.7h24.2V46.46Z" transform="translate(3.02 2.47)"/><path class="cls-23" d="M132.1,97v-.5h0A12.08,12.08,0,0,0,126.89,87a7,7,0,0,0,.28-2,7.34,7.34,0,0,0-14.67,0,7.08,7.08,0,0,0,.33,2.17,12.08,12.08,0,0,0-4.91,9.23h0V110.2h24.2V97Z" transform="translate(3.02 2.47)"/><path class="cls-24" d="M132.1,146.16v-.5h0a12.08,12.08,0,0,0-5.19-9.44,7,7,0,0,0,.28-2,7.34,7.34,0,0,0-14.67,0,7.08,7.08,0,0,0,.33,2.17,12.08,12.08,0,0,0-4.91,9.23h0V159.4h24.2V146.16Z" transform="translate(3.02 2.47)"/><path class="cls-25" d="M132.1,194.66v-.5h0a12.08,12.08,0,0,0-5.19-9.44,7,7,0,0,0,.28-2,7.34,7.34,0,0,0-14.67,0,7.08,7.08,0,0,0,.33,2.17,12.08,12.08,0,0,0-4.91,9.23h0V207.9h24.2V194.66Z" transform="translate(3.02 2.47)"/></g></svg>